<svg width="62" height="64" viewBox="0 0 62 64" fill="none" xmlns="http://www.w3.org/2000/svg">
<rect y="0.421875" width="62" height="63" fill="#FFC147"/>
<g clip-path="url(#clip0_3638_28)">
<path fill-rule="evenodd" clip-rule="evenodd" d="M21.88 20.4219C20.2894 20.4219 19 21.7113 19 23.3019V39.1419C19 41.5277 20.9341 43.4619 23.32 43.4619C25.7059 43.4619 27.64 41.5277 27.64 39.1419V23.3019C27.64 21.7113 26.3506 20.4219 24.76 20.4219H21.88ZM23.32 40.5819C24.1153 40.5819 24.76 39.9371 24.76 39.1419C24.76 38.3466 24.1153 37.7019 23.32 37.7019C22.5247 37.7019 21.88 38.3466 21.88 39.1419C21.88 39.9371 22.5247 40.5819 23.32 40.5819Z" fill="white"/>
<path d="M30.52 38.0512L37.5753 30.9959C38.6999 29.8712 38.6999 28.0477 37.5753 26.923L35.5387 24.8865C34.4141 23.7618 32.5906 23.7618 31.4658 24.8865L30.52 25.8324V38.0512Z" fill="white"/>
<path d="M39.16 43.4618H29.1823L37.8224 34.8218H39.16C40.7506 34.8218 42.04 36.1112 42.04 37.7018V40.5818C42.04 42.1724 40.7506 43.4618 39.16 43.4618Z" fill="white"/>
</g>
<defs>
<clipPath id="clip0_3638_28">
<rect width="24" height="24" fill="white" transform="translate(19 20.4219)"/>
</clipPath>
</defs>
</svg>
