<svg width="62" height="64" viewBox="0 0 62 64" fill="none" xmlns="http://www.w3.org/2000/svg">
<rect y="0.234375" width="62" height="63" fill="#FFC147"/>
<g clip-path="url(#clip0_3638_29)">
<path d="M24.04 35.9435C21.2565 35.9435 19 33.8921 19 31.3616C19 28.9943 20.9749 27.0463 23.5087 26.805C23.3856 26.379 23.32 25.9318 23.32 25.4707C23.32 22.5788 25.8988 20.2344 29.08 20.2344C31.7855 20.2344 34.0554 21.9301 34.6737 24.2163C34.9635 24.1803 35.2593 24.1616 35.56 24.1616C39.1388 24.1616 42.04 26.7991 42.04 30.0526C42.04 33.306 39.1388 35.9435 35.56 35.9435H31.96V31.2494L33.8218 32.9418C34.3841 33.4531 35.2959 33.4531 35.8582 32.9418C36.4206 32.4306 36.4206 31.6018 35.8582 31.0905L31.5382 27.1633C30.9759 26.652 30.0641 26.652 29.5018 27.1633L25.1818 31.0905C24.6194 31.6018 24.6194 32.4306 25.1818 32.9418C25.7441 33.4531 26.6559 33.4531 27.2182 32.9418L29.08 31.2494V35.9435H24.04Z" fill="white"/>
<path d="M29.08 35.9434H31.96V42.4888C31.96 43.2118 31.3152 43.7979 30.52 43.7979C29.7247 43.7979 29.08 43.2118 29.08 42.4888V35.9434Z" fill="white"/>
</g>
<defs>
<clipPath id="clip0_3638_29">
<rect width="24" height="24" fill="white" transform="translate(19 20.2344)"/>
</clipPath>
</defs>
</svg>
