<svg width="187" height="20" viewBox="0 0 187 20" fill="none" xmlns="http://www.w3.org/2000/svg">
<path d="M20.52 4.56C20.5467 4.70667 20.56 4.78 20.56 4.78C20.52 6.51333 20.4933 7.71333 20.48 8.38C20.4667 8.55333 20.38 8.68 20.22 8.76C20.06 8.82667 19.8933 8.82 19.72 8.74C19.64 8.7 19.5933 8.64667 19.58 8.58C19.5267 8.40667 19.4867 8.22667 19.46 8.04C19.46 7.97333 19.4467 7.83333 19.42 7.62C19.4067 7.40667 19.3867 7.24667 19.36 7.14C19.2267 6.42 18.82 5.93333 18.14 5.68C17.7667 5.53333 17.16 5.41333 16.32 5.32C15.4933 5.21333 14.88 5.18667 14.48 5.24C14.2267 5.28 13.82 5.34 13.26 5.42C13.06 5.46 12.96 5.6 12.96 5.84C13 7.17333 13.04 8.51333 13.08 9.86C13.08 9.96667 13.1133 10.0533 13.18 10.12C13.26 10.1867 13.3467 10.2133 13.44 10.2C14.68 10 15.4867 9.82 15.86 9.66C16.2333 9.5 16.48 9.31333 16.6 9.1C16.6667 9.00667 16.7 8.92 16.7 8.84C16.7 8.8 16.7733 8.78 16.92 8.78C17.08 8.76667 17.16 8.78 17.16 8.82C17.1733 8.87333 17.1733 8.94667 17.16 9.04C17.16 9.25333 17.16 9.69333 17.16 10.36C17.1733 11.0267 17.1733 11.46 17.16 11.66C17.16 11.7 17.08 11.72 16.92 11.72C16.76 11.72 16.6733 11.7067 16.66 11.68C16.4333 11.16 16.06 10.9867 15.54 11.16C15.4067 11.2 15.2333 11.2533 15.02 11.32C14.82 11.3733 14.64 11.4267 14.48 11.48C14.3333 11.52 14.16 11.5733 13.96 11.64C13.7733 11.7067 13.6 11.7733 13.44 11.84C13.4 11.8533 13.3467 11.8733 13.28 11.9C13.2267 11.9133 13.1867 11.9267 13.16 11.94C13.1467 11.9533 13.12 11.9733 13.08 12C13.04 12.0133 13.0133 12.0333 13 12.06C12.9867 12.0733 12.9733 12.1 12.96 12.14C12.9467 12.1667 12.9333 12.2 12.92 12.24C12.92 12.28 12.92 12.3333 12.92 12.4C12.9067 12.5733 12.8933 12.8133 12.88 13.12C12.88 13.4267 12.88 13.6333 12.88 13.74C12.88 13.9 12.8667 14.1867 12.84 14.6C12.8267 15 12.82 15.3133 12.82 15.54C12.8067 16.18 13.0933 16.6133 13.68 16.84C13.76 16.8667 13.88 16.9067 14.04 16.96C14.2133 17 14.34 17.0333 14.42 17.06C14.5267 17.1 14.6 17.18 14.64 17.3C14.7067 17.5267 14.68 17.7 14.56 17.82C14.4933 17.9 14.3933 17.94 14.26 17.94C13.42 17.9533 12.6333 17.96 11.9 17.96C11.4733 17.96 10.3933 17.9467 8.66 17.92C8.59333 17.92 8.48 17.9133 8.32 17.9C8.14667 17.8867 8.04 17.8 8 17.64C7.97333 17.5467 7.98 17.4533 8.02 17.36C8.06 17.2533 8.11333 17.1867 8.18 17.16C8.59333 17.04 8.92667 16.88 9.18 16.68C9.42 16.4933 9.54667 16.2733 9.56 16.02C9.57333 15.9133 9.58 15.7267 9.58 15.46C9.64667 13.8733 9.68667 12.9 9.7 12.54C9.71333 11.8467 9.72 11.3267 9.72 10.98C9.70667 10.62 9.68667 10.1 9.66 9.42C9.64667 8.74 9.64 8.25333 9.64 7.96C9.62667 7.84 9.62667 7.67333 9.64 7.46C9.65333 7.23333 9.66 7.1 9.66 7.06C9.67333 6.62 9.67333 6.36 9.66 6.28C9.64667 6.05333 9.59333 5.86667 9.5 5.72C9.35333 5.46667 9.09333 5.28667 8.72 5.18C8.68 5.18 8.62667 5.17333 8.56 5.16C7.41333 5.10667 6.52667 5.06667 5.9 5.04C5.66 5.04 5.32 5.04667 4.88 5.06C4.45333 5.06 4.12 5.05333 3.88 5.04C3.32 5.02667 2.80667 4.92667 2.34 4.74C2.00667 4.59333 1.72 4.40667 1.48 4.18C1.25333 3.94 1.09333 3.66667 1 3.36C0.906667 3.04 0.88 2.69333 0.92 2.32C0.946667 2 1.05333 1.70667 1.24 1.44C1.44 1.17333 1.70667 1.00667 2.04 0.939999C2.26667 0.886666 2.48 0.926666 2.68 1.06C2.88 1.18 3.00667 1.35333 3.06 1.58C3.08667 1.7 3.08667 1.82 3.06 1.94C3.03333 2.04667 2.99333 2.14667 2.94 2.24C2.88667 2.33333 2.81333 2.41333 2.72 2.48C2.62667 2.54667 2.52667 2.59333 2.42 2.62C2.36667 2.63333 2.28667 2.64 2.18 2.64C2.07333 2.64 2.00667 2.64667 1.98 2.66C1.74 2.68667 1.64667 2.80667 1.7 3.02C1.78 3.38 1.97333 3.64 2.28 3.8C2.56 3.96 2.88 4.05333 3.24 4.08C4.04 4.16 4.56 4.2 4.8 4.2C5.69333 4.22667 8.64667 4.24 13.66 4.24C16.94 4.24 18.98 4.24 19.78 4.24C19.8467 4.24 19.9933 4.25333 20.22 4.28C20.2867 4.28 20.3467 4.31333 20.4 4.38C20.4667 4.43333 20.5067 4.49333 20.52 4.56ZM1.52 1.86C1.50667 1.87333 1.50667 1.88667 1.52 1.9C1.54667 1.91333 1.56667 1.91333 1.58 1.9C1.67333 1.78 1.76667 1.68 1.86 1.6C1.95333 1.53333 2.08 1.49333 2.24 1.48C2.29333 1.46667 2.31333 1.42667 2.3 1.36C2.3 1.28 2.26667 1.24667 2.2 1.26C1.90667 1.28667 1.68 1.48667 1.52 1.86ZM11.48 10.66C11.5467 9.86 11.5733 8.94 11.56 7.9C11.5467 6.84667 11.4533 5.92667 11.28 5.14C11.28 5.11333 11.2667 5.10667 11.24 5.12C11.2133 5.12 11.2 5.13333 11.2 5.16C11.2533 6.81333 11.2133 8.69333 11.08 10.8C11.0133 11.96 10.98 12.8733 10.98 13.54C10.9667 13.8333 10.9733 14.1333 11 14.44C11.0267 14.7467 11.06 15.12 11.1 15.56C11.1533 15.9867 11.1867 16.28 11.2 16.44C11.2133 16.48 11.24 16.5067 11.28 16.52C11.32 16.52 11.34 16.4933 11.34 16.44C11.3933 15.7467 11.42 14.7467 11.42 13.44C11.4333 12.1333 11.4533 11.2067 11.48 10.66ZM35.0241 16.96C35.0774 17.16 35.1041 17.2667 35.1041 17.28C35.1174 17.5867 35.0774 17.7867 34.9841 17.88C34.9041 17.96 34.7107 18 34.4041 18C34.3374 18 34.2574 18 34.1641 18C34.0707 18.0133 33.9841 18.02 33.9041 18.02C33.8241 18.02 33.7441 18.02 33.6641 18.02C33.5841 18.02 33.4974 18.02 33.4041 18.02C33.3241 18.02 33.2507 18.02 33.1841 18.02C31.8241 18.0333 30.5907 18.0333 29.4841 18.02C29.1907 18.02 28.9641 18.0067 28.8041 17.98C28.7107 17.9533 28.6441 17.88 28.6041 17.76C28.4841 17.44 28.5707 17.24 28.8641 17.16C29.2774 17.0267 29.5241 16.94 29.6041 16.9C30.0041 16.7267 30.1707 16.42 30.1041 15.98C30.1041 15.98 30.1041 15.9667 30.1041 15.94C30.1041 15.9133 30.0974 15.8933 30.0841 15.88C29.7241 14.7333 29.4974 14.02 29.4041 13.74C29.3374 13.5667 29.1907 13.4733 28.9641 13.46C27.9774 13.42 27.3374 13.4 27.0441 13.4C26.7641 13.3733 26.4307 13.3733 26.0441 13.4C25.6574 13.4133 25.3107 13.4733 25.0041 13.58C24.9507 13.6467 24.9041 13.72 24.8641 13.8C24.8241 13.8667 24.7841 13.9333 24.7441 14C24.7174 14.0667 24.6841 14.1533 24.6441 14.26C24.6174 14.3533 24.5907 14.4267 24.5641 14.48C24.5507 14.5333 24.5241 14.62 24.4841 14.74C24.4574 14.8467 24.4374 14.9267 24.4241 14.98C24.3307 15.2867 24.2574 15.6133 24.2041 15.96C24.1774 16.1067 24.1774 16.2933 24.2041 16.52C24.2441 16.8267 24.4107 17 24.7041 17.04C24.8107 17.0533 24.9507 17.0667 25.1241 17.08C25.3107 17.0933 25.4307 17.1 25.4841 17.1C25.5641 17.1133 25.6307 17.1533 25.6841 17.22C25.7374 17.2867 25.7574 17.3533 25.7441 17.42C25.7307 17.4467 25.6841 17.6133 25.6041 17.92C25.5107 17.9467 25.4574 17.96 25.4441 17.96C23.9107 17.9733 22.7574 17.98 21.9841 17.98C21.7441 17.9933 21.6107 17.8933 21.5841 17.68C21.5307 17.36 21.5907 17.16 21.7641 17.08C21.8441 17.0933 21.9174 17.0933 21.9841 17.08C22.0641 17.0533 22.1307 17.02 22.1841 16.98C22.2507 16.94 22.3107 16.9 22.3641 16.86C22.4174 16.8067 22.4707 16.74 22.5241 16.66C22.5774 16.58 22.6174 16.5133 22.6441 16.46C22.6841 16.4067 22.7241 16.3267 22.7641 16.22C22.8174 16.1133 22.8574 16.0333 22.8841 15.98C22.9107 15.9267 22.9441 15.8467 22.9841 15.74C23.0374 15.62 23.0707 15.54 23.0841 15.5C23.2574 15.0733 23.4841 14.4667 23.7641 13.68C24.0441 12.8933 24.2307 12.38 24.3241 12.14C25.1907 9.83333 25.8441 7.96667 26.2841 6.54C26.2974 6.48667 26.3174 6.42 26.3441 6.34C26.3707 6.24667 26.3907 6.16667 26.4041 6.1C26.4307 6.02 26.4507 5.94667 26.4641 5.88C26.5441 5.56 26.4574 5.29333 26.2041 5.08C26.1774 5.05333 26.1107 5.00667 26.0041 4.94C25.8974 4.86 25.8174 4.79333 25.7641 4.74C25.6707 4.64667 25.6507 4.50667 25.7041 4.32C25.7307 4.21333 25.8174 4.15333 25.9641 4.14C27.0974 4.00667 28.2107 4.01333 29.3041 4.16C29.3574 4.17333 29.3974 4.2 29.4241 4.24C29.4641 4.28 29.4841 4.31333 29.4841 4.34C29.4974 4.36667 29.5174 4.42 29.5441 4.5C29.5707 4.56667 29.5841 4.6 29.5841 4.6C30.4774 6.90667 31.0107 8.30667 31.1841 8.8C31.3041 9.12 31.4307 9.49333 31.5641 9.92C31.6974 10.3333 31.8307 10.7533 31.9641 11.18C32.1107 11.6067 32.2374 11.98 32.3441 12.3C32.5041 12.7533 32.7374 13.3933 33.0441 14.22C33.3507 15.0333 33.5507 15.5467 33.6441 15.76C33.8441 16.3067 34.1974 16.66 34.7041 16.82C34.7174 16.82 34.8241 16.8667 35.0241 16.96ZM28.6441 12.1C28.6707 11.94 28.6841 11.8533 28.6841 11.84C28.5374 11.4 28.3241 10.6733 28.0441 9.66C27.7774 8.63333 27.5507 7.84667 27.3641 7.3C27.3241 7.31333 27.2774 7.33333 27.2241 7.36C27.1841 7.37333 27.1507 7.39333 27.1241 7.42C27.0974 7.43333 27.0774 7.44667 27.0641 7.46C26.4374 9.08667 25.9641 10.5 25.6441 11.7C25.6307 11.7533 25.6307 11.7933 25.6441 11.82C25.6974 11.9133 25.7374 11.9667 25.7641 11.98C26.6707 12.18 27.6307 12.22 28.6441 12.1ZM32.1241 16.44C32.1374 16.48 32.1641 16.4867 32.2041 16.46C32.2307 16.4467 32.2374 16.4267 32.2241 16.4C31.6107 14.3867 30.9441 12.5533 30.2241 10.9C30.0507 10.5 29.7441 9.65333 29.3041 8.36C28.8641 7.06667 28.4641 6.09333 28.1041 5.44C28.0907 5.42667 28.0707 5.42667 28.0441 5.44C28.0307 5.44 28.0307 5.44667 28.0441 5.46C28.1907 5.87333 28.4574 6.69333 28.8441 7.92C29.2441 9.13333 29.5841 10.0533 29.8641 10.68C30.2507 11.56 31.0041 13.48 32.1241 16.44ZM46.0394 13.9C46.0527 14.9 46.0527 15.6067 46.0394 16.02C46.0394 16.18 45.966 16.3 45.8194 16.38C45.686 16.4467 45.5394 16.44 45.3794 16.36C45.366 16.36 45.2594 16.28 45.0594 16.12C44.766 16.44 44.5994 16.62 44.5594 16.66C44.1327 17.14 43.6327 17.52 43.0594 17.8C41.046 18.7333 39.0327 18.5267 37.0194 17.18C36.7927 17.02 36.546 16.7933 36.2794 16.5C35.626 15.7133 35.126 14.8667 34.7794 13.96C34.446 13.04 34.2727 12.0667 34.2594 11.04C34.2327 9.37333 34.666 7.88667 35.5594 6.58C36.4527 5.24667 37.666 4.37333 39.1994 3.96C40.506 3.61333 41.6527 3.60667 42.6394 3.94C42.7727 3.98 42.906 4.03333 43.0394 4.1C43.186 4.16667 43.3527 4.24667 43.5394 4.34C43.726 4.43333 43.866 4.5 43.9594 4.54C44.226 4.66 44.446 4.59333 44.6194 4.34C44.646 4.31333 44.6727 4.26667 44.6994 4.2C44.7394 4.13333 44.766 4.08 44.7794 4.04C44.8594 3.93333 44.9994 3.86 45.1994 3.82C45.3994 3.76667 45.566 3.77333 45.6994 3.84C45.766 3.88 45.806 3.93333 45.8194 4C45.8594 4.18667 45.8794 4.37333 45.8794 4.56C45.8927 4.88 45.926 6.3 45.9794 8.82C45.9794 8.95333 45.9327 9.06667 45.8394 9.16C45.7594 9.25333 45.646 9.31333 45.4994 9.34C45.3927 9.34 45.2927 9.32 45.1994 9.28C45.1194 9.22667 45.066 9.16 45.0394 9.08C45.0127 8.98667 44.966 8.78667 44.8994 8.48C44.8327 8.17333 44.7727 7.94 44.7194 7.78C44.6127 7.38 44.4794 6.99333 44.3194 6.62C44.266 6.48667 44.1527 6.29333 43.9794 6.04C43.566 5.45333 42.9994 5.14 42.2794 5.1C41.5327 5.06 40.9394 5.11333 40.4994 5.26C39.8727 5.46 39.4127 5.81333 39.1194 6.32C38.7194 7.05333 38.4794 7.75333 38.3994 8.42C38.146 10.3133 38.1794 12.2133 38.4994 14.12C38.6594 15.0533 39.0127 15.78 39.5594 16.3C40.0794 16.78 40.6527 17.0067 41.2794 16.98C41.8794 16.9533 42.3194 16.8933 42.5994 16.8C43.3994 16.52 44.026 16.0067 44.4794 15.26C44.546 15.1533 44.7527 14.72 45.0994 13.96C45.2327 13.7067 45.446 13.5933 45.7394 13.62C45.806 13.6333 45.8727 13.6733 45.9394 13.74C46.006 13.7933 46.0394 13.8467 46.0394 13.9ZM39.1994 17.22C39.2394 17.2333 39.266 17.22 39.2794 17.18C39.2927 17.1267 39.2794 17.0933 39.2394 17.08C38.9994 16.9867 38.7794 16.86 38.5794 16.7C38.3794 16.54 38.2127 16.3667 38.0794 16.18C37.946 15.9933 37.8194 15.78 37.6994 15.54C37.5794 15.2867 37.4794 15.06 37.3994 14.86C37.3327 14.6467 37.266 14.4067 37.1994 14.14C36.906 13.1 36.7394 12.02 36.6994 10.9C36.6194 8.31333 37.3327 6.32667 38.8394 4.94C38.8527 4.92667 38.8527 4.91333 38.8394 4.9C38.826 4.87333 38.806 4.86667 38.7794 4.88C37.886 5.53333 37.2394 6.43333 36.8394 7.58C36.4527 8.71333 36.2794 9.91333 36.3194 11.18C36.3594 12.4467 36.6127 13.64 37.0794 14.76C37.1994 15.0667 37.3127 15.3267 37.4194 15.54C37.526 15.7533 37.666 15.9867 37.8394 16.24C38.0127 16.4933 38.2127 16.7067 38.4394 16.88C38.666 17.04 38.9194 17.1533 39.1994 17.22ZM60.6536 4.56C60.7203 4.70667 60.7469 4.85333 60.7336 5C60.7069 6.01333 60.6669 7.17333 60.6136 8.48C60.6136 8.65333 60.5336 8.76667 60.3736 8.82C60.1469 8.87333 59.9669 8.86 59.8336 8.78C59.7803 8.72667 59.7469 8.66667 59.7336 8.6C59.6669 8.18667 59.6003 7.74 59.5336 7.26C59.4269 6.44667 58.9669 5.92 58.1536 5.68C57.8736 5.6 57.4669 5.52 56.9336 5.44C56.5469 5.37333 56.1669 5.32667 55.7936 5.3C55.2469 5.27333 54.8536 5.28 54.6136 5.32C54.4669 5.34667 54.3203 5.37333 54.1736 5.4C54.0269 5.42667 53.9069 5.44 53.8136 5.44C53.7336 5.44 53.6469 5.45333 53.5536 5.48C53.4736 5.50667 53.4136 5.52 53.3736 5.52C53.3469 5.50667 53.3136 5.53333 53.2736 5.6C53.2336 5.65333 53.2069 5.68667 53.1936 5.7C53.1936 5.71333 53.1869 5.78 53.1736 5.9C53.1603 6.00667 53.1536 6.09333 53.1536 6.16C53.1669 6.21333 53.1736 6.33333 53.1736 6.52C53.1869 6.70667 53.1936 6.86667 53.1936 7C53.2069 7.37333 53.2136 7.92667 53.2136 8.66C53.2269 9.39333 53.2336 9.81333 53.2336 9.92C53.2336 10.0133 53.2669 10.1 53.3336 10.18C53.4003 10.2467 53.4803 10.28 53.5736 10.28C53.6803 10.2667 53.9536 10.2067 54.3936 10.1C54.8336 9.99333 55.2469 9.88667 55.6336 9.78L56.2136 9.64C56.3736 9.62667 56.5203 9.52667 56.6536 9.34C56.6803 9.31333 56.7203 9.26 56.7736 9.18C56.8269 9.08667 56.8669 9.02 56.8936 8.98C56.9069 8.96667 56.9669 8.95333 57.0736 8.94C57.1803 8.92667 57.2603 8.94667 57.3136 9C57.3403 9.04 57.3469 9.11333 57.3336 9.22C57.2936 10.3533 57.2603 11.1733 57.2336 11.68C57.2336 11.76 57.2003 11.82 57.1336 11.86C57.0536 11.9133 56.9803 11.92 56.9136 11.88C56.8203 11.8267 56.7469 11.7533 56.6936 11.66C56.5203 11.3933 56.3069 11.2667 56.0536 11.28C55.2669 11.32 54.3936 11.5333 53.4336 11.92C53.2336 12 53.1269 12.0933 53.1136 12.2C53.0736 12.4133 53.0403 13.1467 53.0136 14.4C53.0003 15.64 53.0003 16.36 53.0136 16.56C53.0403 16.7733 53.1669 16.8867 53.3936 16.9C54.3536 16.9133 55.2069 16.9267 55.9536 16.94C56.1269 16.94 56.3869 16.9267 56.7336 16.9C57.2536 16.8733 57.7403 16.72 58.1936 16.44C58.6469 16.1467 58.9936 15.7667 59.2336 15.3C59.5003 14.8067 59.6469 14.3 59.6736 13.78C59.7003 13.5133 59.7269 13.3333 59.7536 13.24C59.7803 13.16 59.8669 13.1067 60.0136 13.08C60.0936 13.0667 60.1736 13.08 60.2536 13.12C60.3336 13.16 60.3736 13.2067 60.3736 13.26C60.4003 13.54 60.4136 13.7267 60.4136 13.82C60.4003 14.06 60.3803 14.4 60.3536 14.84C60.3269 15.28 60.3069 15.5733 60.2936 15.72C60.2803 15.9067 60.2603 16.2267 60.2336 16.68C60.2069 17.1333 60.1869 17.48 60.1736 17.72C60.1603 17.9333 60.0403 18.0533 59.8136 18.08C59.1069 18.16 58.6269 18.2067 58.3736 18.22C57.7069 18.2467 56.9603 18.26 56.1336 18.26C53.6536 18.26 51.7069 18.2467 50.2936 18.22C49.9336 18.22 49.3403 18.18 48.5136 18.1C48.3669 18.0867 48.2603 18.0267 48.1936 17.92C48.1269 17.8 48.1136 17.6667 48.1536 17.52C48.1803 17.4133 48.2403 17.3267 48.3336 17.26C48.3469 17.2467 48.4469 17.2067 48.6336 17.14C49.4336 16.8733 49.8203 16.3133 49.7936 15.46C49.7936 15.0333 49.7936 14.6933 49.7936 14.44C49.8069 14.1867 49.8203 13.8533 49.8336 13.44C49.8469 13.0267 49.8536 12.6933 49.8536 12.44C49.8536 12.1733 49.8536 11.8533 49.8536 11.48C49.8536 11.0933 49.8536 10.7733 49.8536 10.52C49.8536 10.2667 49.8469 9.95333 49.8336 9.58C49.8336 9.19333 49.8336 8.87333 49.8336 8.62C49.8336 8.43333 49.8336 8.15333 49.8336 7.78C49.8336 7.39333 49.8336 7.11333 49.8336 6.94C49.8336 6.52667 49.8269 6.26667 49.8136 6.16C49.7336 5.73333 49.5069 5.46 49.1336 5.34C48.9736 5.28667 48.7536 5.24 48.4736 5.2C48.4736 5.2 48.4536 5.19333 48.4136 5.18C48.4003 5.18 48.3736 5.18 48.3336 5.18C48.2936 5.18 48.2669 5.18 48.2536 5.18C48.1336 5.18 48.0269 5.13333 47.9336 5.04C47.8536 4.94667 47.8203 4.84 47.8336 4.72V4.7C47.8336 4.58 47.8736 4.48 47.9536 4.4C48.0469 4.32 48.1536 4.28 48.2736 4.28C51.3803 4.29333 53.2803 4.3 53.9736 4.3C57.2269 4.3 59.2336 4.3 59.9936 4.3C60.1936 4.3 60.3403 4.32 60.4336 4.36C60.5403 4.38667 60.6136 4.45333 60.6536 4.56ZM51.5936 16.88C51.6203 16.44 51.6403 15.96 51.6536 15.44C51.6803 14.9067 51.6936 14.4467 51.6936 14.06C51.6936 13.66 51.6869 13.16 51.6736 12.56C51.6736 11.96 51.6736 11.4933 51.6736 11.16C51.7003 8.64 51.6603 6.68 51.5536 5.28C51.5536 5.25333 51.5336 5.24 51.4936 5.24C51.4669 5.24 51.4536 5.25333 51.4536 5.28C51.2269 10.1067 51.2469 13.9733 51.5136 16.88C51.5136 16.9067 51.5269 16.92 51.5536 16.92C51.5803 16.92 51.5936 16.9067 51.5936 16.88ZM75.4766 17.34C75.5166 17.3533 75.5499 17.38 75.5766 17.42C75.6166 17.4467 75.6432 17.4867 75.6566 17.54C75.6832 17.5933 75.6899 17.6467 75.6766 17.7C75.6766 17.9 75.6166 18.0267 75.4966 18.08C75.3766 18.1333 75.2699 18.16 75.1766 18.16C74.1632 18.1733 72.8232 18.18 71.1566 18.18C71.0499 18.1933 70.9766 18.18 70.9366 18.14C70.8166 18.0467 70.7499 17.9667 70.7366 17.9C70.6966 17.6733 70.7032 17.5333 70.7566 17.48C70.8766 17.3733 70.9432 17.2533 70.9566 17.12C70.9832 16.9867 70.9832 16.8867 70.9566 16.82C70.9299 16.74 70.8832 16.62 70.8166 16.46C70.3232 15.2867 69.7832 13.9733 69.1966 12.52C69.1032 12.28 68.9366 12.1533 68.6966 12.14C68.4432 12.1267 68.2566 12.12 68.1366 12.12C68.0299 12.12 67.8899 12.12 67.7166 12.12C67.5166 12.12 67.3766 12.12 67.2966 12.12C67.2166 12.12 67.1232 12.14 67.0166 12.18C66.9232 12.22 66.8632 12.26 66.8366 12.3C66.8232 12.3267 66.8032 12.4133 66.7766 12.56C66.7499 12.6933 66.7366 12.8133 66.7366 12.92C66.7366 13.0267 66.7432 13.22 66.7566 13.5V13.52C66.7566 13.5733 66.8099 14.3933 66.9166 15.98C66.9299 16.34 67.1099 16.6 67.4566 16.76C67.4699 16.7733 67.8166 16.9067 68.4966 17.16C68.6432 17.2267 68.7232 17.34 68.7366 17.5C68.7499 17.7533 68.6966 17.9267 68.5766 18.02C68.4966 18.0867 68.4366 18.12 68.3966 18.12C67.3032 18.16 66.6632 18.1733 66.4766 18.16C65.9299 18.1333 65.5432 18.12 65.3166 18.12C65.1032 18.12 64.7232 18.1267 64.1766 18.14C63.6299 18.1533 63.2432 18.16 63.0166 18.16C62.8832 18.16 62.6232 18.1333 62.2366 18.08C62.0899 18.0533 62.0166 17.94 62.0166 17.74C62.0166 17.5533 62.0432 17.42 62.0966 17.34C62.1499 17.2467 62.2432 17.1733 62.3766 17.12C62.4032 17.12 62.4966 17.0933 62.6566 17.04C62.8166 16.9867 62.9366 16.94 63.0166 16.9C63.3899 16.7133 63.5832 16.42 63.5966 16.02C63.5966 15.9533 63.5966 15.8733 63.5966 15.78C63.5966 11.7667 63.5966 9.41333 63.5966 8.72C63.5966 8.44 63.5899 7.77333 63.5766 6.72C63.5632 6.46667 63.5499 6.28 63.5366 6.16C63.4832 5.81333 63.3099 5.59333 63.0166 5.5C62.9099 5.46 62.7566 5.41333 62.5566 5.36C62.3566 5.29333 62.2232 5.25333 62.1566 5.24C61.9432 5.17333 61.8499 4.98667 61.8766 4.68C61.8899 4.6 61.9166 4.52667 61.9566 4.46C62.0099 4.39333 62.0699 4.36 62.1366 4.36C62.5232 4.32 62.7832 4.30667 62.9166 4.32C63.1299 4.32 63.5566 4.32667 64.1966 4.34C64.8499 4.34 65.3566 4.34 65.7166 4.34C66.3966 4.34 67.2166 4.31333 68.1766 4.26C69.5099 4.20667 70.6632 4.29333 71.6366 4.52C72.4366 4.70667 73.1099 5.00667 73.6566 5.42C73.9899 5.67333 74.2366 5.99333 74.3966 6.38C74.7832 7.31333 74.8632 8.20667 74.6366 9.06C74.4099 9.91333 73.9366 10.6333 73.2166 11.22C73.1232 11.3 73.0166 11.3733 72.8966 11.44C72.7899 11.5067 72.6499 11.58 72.4766 11.66C72.3166 11.74 72.1966 11.8067 72.1166 11.86C72.1166 11.9667 72.1166 12.0267 72.1166 12.04C72.8632 14.12 73.4432 15.5733 73.8566 16.4C73.8566 16.4133 73.8766 16.46 73.9166 16.54C73.9566 16.6067 73.9832 16.66 73.9966 16.7C74.1566 16.98 74.3899 17.1533 74.6966 17.22C74.7766 17.2333 74.8566 17.2467 74.9366 17.26C75.0299 17.2733 75.1232 17.2867 75.2166 17.3C75.3232 17.3133 75.4099 17.3267 75.4766 17.34ZM65.3766 16.4C65.4566 15.88 65.5099 15.3467 65.5366 14.8C65.5632 14.24 65.5699 13.5533 65.5566 12.74C65.5432 11.9267 65.5366 11.3867 65.5366 11.12C65.5366 10.76 65.5432 10.2867 65.5566 9.7C65.5699 9.1 65.5766 8.6 65.5766 8.2C65.5899 7.8 65.5899 7.33333 65.5766 6.8C65.5766 6.26667 65.5566 5.78 65.5166 5.34C65.5166 5.31333 65.5032 5.3 65.4766 5.3C65.4499 5.3 65.4299 5.31333 65.4166 5.34C65.3366 6.44667 65.2432 8.32667 65.1366 10.98C65.0966 12.18 65.0899 13.1 65.1166 13.74C65.1166 13.9533 65.1499 14.3667 65.2166 14.98C65.2832 15.58 65.3099 16.0533 65.2966 16.4C65.2832 16.4267 65.2899 16.4467 65.3166 16.46C65.3566 16.46 65.3766 16.44 65.3766 16.4ZM71.6166 10.3C71.5899 10.3267 71.5832 10.36 71.5966 10.4C71.6232 10.4267 71.6566 10.4267 71.6966 10.4C72.2166 10.0667 72.5632 9.58667 72.7366 8.96C72.9232 8.32 72.9366 7.68 72.7766 7.04C72.6299 6.4 72.3632 5.85333 71.9766 5.4C71.9499 5.37333 71.9232 5.37333 71.8966 5.4C71.8832 5.41333 71.8832 5.43333 71.8966 5.46C72.3899 6.14 72.6166 6.96667 72.5766 7.94C72.5366 8.91333 72.2166 9.7 71.6166 10.3ZM69.4166 10.78C69.8699 10.74 70.2232 10.56 70.4766 10.24C70.8632 9.77333 71.0966 9.31333 71.1766 8.86C71.3366 8.03333 71.3032 7.22 71.0766 6.42C70.9166 5.86 70.5166 5.51333 69.8766 5.38C69.6899 5.35333 69.4299 5.33333 69.0966 5.32C68.5766 5.30667 67.8832 5.36667 67.0166 5.5C66.9766 5.67333 66.9499 5.84 66.9366 6C66.9366 6.16 66.9366 6.35333 66.9366 6.58C66.9499 6.80667 66.9499 6.95333 66.9366 7.02C66.9099 8.68667 66.8899 9.62 66.8766 9.82C66.8366 10.3533 66.8566 10.66 66.9366 10.74C67.0299 10.82 67.3366 10.8533 67.8566 10.84C68.4832 10.8267 69.0032 10.8067 69.4166 10.78ZM72.2566 16.46C72.2699 16.4867 72.2899 16.4933 72.3166 16.48C72.3432 16.4667 72.3499 16.4467 72.3366 16.42C71.8432 14.3667 71.2699 12.8533 70.6166 11.88C70.6032 11.8533 70.5832 11.8467 70.5566 11.86C70.5299 11.86 70.5232 11.8733 70.5366 11.9C70.6299 12.18 70.8766 12.8667 71.2766 13.96C71.6766 15.0533 72.0032 15.8867 72.2566 16.46ZM88.9739 4.56C89.0406 4.70667 89.0672 4.85333 89.0539 5C89.0272 6.01333 88.9872 7.17333 88.9339 8.48C88.9339 8.65333 88.8539 8.76667 88.6939 8.82C88.4672 8.87333 88.2872 8.86 88.1539 8.78C88.1006 8.72667 88.0672 8.66667 88.0539 8.6C87.9872 8.18667 87.9206 7.74 87.8539 7.26C87.7472 6.44667 87.2872 5.92 86.4739 5.68C86.1939 5.6 85.7872 5.52 85.2539 5.44C84.8672 5.37333 84.4872 5.32667 84.1139 5.3C83.5672 5.27333 83.1739 5.28 82.9339 5.32C82.7872 5.34667 82.6406 5.37333 82.4939 5.4C82.3472 5.42667 82.2272 5.44 82.1339 5.44C82.0539 5.44 81.9672 5.45333 81.8739 5.48C81.7939 5.50667 81.7339 5.52 81.6939 5.52C81.6672 5.50667 81.6339 5.53333 81.5939 5.6C81.5539 5.65333 81.5272 5.68667 81.5139 5.7C81.5139 5.71333 81.5072 5.78 81.4939 5.9C81.4806 6.00667 81.4739 6.09333 81.4739 6.16C81.4872 6.21333 81.4939 6.33333 81.4939 6.52C81.5072 6.70667 81.5139 6.86667 81.5139 7C81.5272 7.37333 81.5339 7.92667 81.5339 8.66C81.5472 9.39333 81.5539 9.81333 81.5539 9.92C81.5539 10.0133 81.5872 10.1 81.6539 10.18C81.7206 10.2467 81.8006 10.28 81.8939 10.28C82.0006 10.2667 82.2739 10.2067 82.7139 10.1C83.1539 9.99333 83.5672 9.88667 83.9539 9.78L84.5339 9.64C84.6939 9.62667 84.8406 9.52667 84.9739 9.34C85.0006 9.31333 85.0406 9.26 85.0939 9.18C85.1472 9.08667 85.1872 9.02 85.2139 8.98C85.2272 8.96667 85.2872 8.95333 85.3939 8.94C85.5006 8.92667 85.5806 8.94667 85.6339 9C85.6606 9.04 85.6672 9.11333 85.6539 9.22C85.6139 10.3533 85.5806 11.1733 85.5539 11.68C85.5539 11.76 85.5206 11.82 85.4539 11.86C85.3739 11.9133 85.3006 11.92 85.2339 11.88C85.1406 11.8267 85.0672 11.7533 85.0139 11.66C84.8406 11.3933 84.6272 11.2667 84.3739 11.28C83.5872 11.32 82.7139 11.5333 81.7539 11.92C81.5539 12 81.4472 12.0933 81.4339 12.2C81.3939 12.4133 81.3606 13.1467 81.3339 14.4C81.3206 15.64 81.3206 16.36 81.3339 16.56C81.3606 16.7733 81.4872 16.8867 81.7139 16.9C82.6739 16.9133 83.5272 16.9267 84.2739 16.94C84.4472 16.94 84.7072 16.9267 85.0539 16.9C85.5739 16.8733 86.0606 16.72 86.5139 16.44C86.9672 16.1467 87.3139 15.7667 87.5539 15.3C87.8206 14.8067 87.9672 14.3 87.9939 13.78C88.0206 13.5133 88.0472 13.3333 88.0739 13.24C88.1006 13.16 88.1872 13.1067 88.3339 13.08C88.4139 13.0667 88.4939 13.08 88.5739 13.12C88.6539 13.16 88.6939 13.2067 88.6939 13.26C88.7206 13.54 88.7339 13.7267 88.7339 13.82C88.7206 14.06 88.7006 14.4 88.6739 14.84C88.6472 15.28 88.6272 15.5733 88.6139 15.72C88.6006 15.9067 88.5806 16.2267 88.5539 16.68C88.5272 17.1333 88.5072 17.48 88.4939 17.72C88.4806 17.9333 88.3606 18.0533 88.1339 18.08C87.4272 18.16 86.9472 18.2067 86.6939 18.22C86.0272 18.2467 85.2806 18.26 84.4539 18.26C81.9739 18.26 80.0272 18.2467 78.6139 18.22C78.2539 18.22 77.6606 18.18 76.8339 18.1C76.6872 18.0867 76.5806 18.0267 76.5139 17.92C76.4472 17.8 76.4339 17.6667 76.4739 17.52C76.5006 17.4133 76.5606 17.3267 76.6539 17.26C76.6672 17.2467 76.7672 17.2067 76.9539 17.14C77.7539 16.8733 78.1406 16.3133 78.1139 15.46C78.1139 15.0333 78.1139 14.6933 78.1139 14.44C78.1272 14.1867 78.1406 13.8533 78.1539 13.44C78.1672 13.0267 78.1739 12.6933 78.1739 12.44C78.1739 12.1733 78.1739 11.8533 78.1739 11.48C78.1739 11.0933 78.1739 10.7733 78.1739 10.52C78.1739 10.2667 78.1672 9.95333 78.1539 9.58C78.1539 9.19333 78.1539 8.87333 78.1539 8.62C78.1539 8.43333 78.1539 8.15333 78.1539 7.78C78.1539 7.39333 78.1539 7.11333 78.1539 6.94C78.1539 6.52667 78.1472 6.26667 78.1339 6.16C78.0539 5.73333 77.8272 5.46 77.4539 5.34C77.2939 5.28667 77.0739 5.24 76.7939 5.2C76.7939 5.2 76.7739 5.19333 76.7339 5.18C76.7206 5.18 76.6939 5.18 76.6539 5.18C76.6139 5.18 76.5872 5.18 76.5739 5.18C76.4539 5.18 76.3472 5.13333 76.2539 5.04C76.1739 4.94667 76.1406 4.84 76.1539 4.72V4.7C76.1539 4.58 76.1939 4.48 76.2739 4.4C76.3672 4.32 76.4739 4.28 76.5939 4.28C79.7006 4.29333 81.6006 4.3 82.2939 4.3C85.5472 4.3 87.5539 4.3 88.3139 4.3C88.5139 4.3 88.6606 4.32 88.7539 4.36C88.8606 4.38667 88.9339 4.45333 88.9739 4.56ZM79.9139 16.88C79.9406 16.44 79.9606 15.96 79.9739 15.44C80.0006 14.9067 80.0139 14.4467 80.0139 14.06C80.0139 13.66 80.0072 13.16 79.9939 12.56C79.9939 11.96 79.9939 11.4933 79.9939 11.16C80.0206 8.64 79.9806 6.68 79.8739 5.28C79.8739 5.25333 79.8539 5.24 79.8139 5.24C79.7872 5.24 79.7739 5.25333 79.7739 5.28C79.5472 10.1067 79.5672 13.9733 79.8339 16.88C79.8339 16.9067 79.8472 16.92 79.8739 16.92C79.9006 16.92 79.9139 16.9067 79.9139 16.88ZM102.761 14.26C102.868 14.26 102.954 14.3 103.021 14.38C103.088 14.4467 103.121 14.5333 103.121 14.64C103.041 15.6533 102.974 16.5133 102.921 17.22C102.908 17.3933 102.881 17.54 102.841 17.66C102.814 17.7267 102.761 17.7867 102.681 17.84C102.614 17.8933 102.541 17.9267 102.461 17.94C102.288 17.94 101.561 17.9467 100.281 17.96C97.5209 18 96.1409 18.02 96.1409 18.02C95.6609 18.02 95.1743 18.02 94.6809 18.02C93.7609 18.0067 92.7343 17.9933 91.6009 17.98H91.0809C91.0009 17.9267 90.9476 17.86 90.9209 17.78C90.8809 17.7133 90.8609 17.6533 90.8609 17.6C90.8609 17.48 90.8743 17.3733 90.9009 17.28C90.9409 17.1467 91.0143 17.06 91.1209 17.02C91.1609 16.9933 91.3609 16.9133 91.7209 16.78C91.7209 16.78 91.7276 16.78 91.7409 16.78C91.7543 16.7667 91.7609 16.76 91.7609 16.76C92.0543 16.5867 92.2543 16.3733 92.3609 16.12C92.3876 15.52 92.4009 15.12 92.4009 14.92C92.3609 14.2 92.3743 12.7467 92.4409 10.56C92.4543 10.1867 92.4543 9.11333 92.4409 7.34C92.4409 7.08667 92.4209 6.72 92.3809 6.24C92.3409 5.78667 92.0876 5.44 91.6209 5.2C91.5809 5.18667 91.5343 5.17333 91.4809 5.16C91.4276 5.14667 91.3743 5.13333 91.3209 5.12C91.2676 5.10667 91.2209 5.09333 91.1809 5.08C91.0476 5.02667 90.9476 4.93333 90.8809 4.8C90.8276 4.65333 90.8409 4.50667 90.9209 4.36C90.9476 4.28 90.9943 4.23333 91.0609 4.22C91.1276 4.19333 91.2409 4.18 91.4009 4.18C91.8943 4.18 92.3409 4.17333 92.7409 4.16C94.4609 4.16 95.6209 4.16 96.2209 4.16C96.7009 4.16 97.0209 4.2 97.1809 4.28C97.2876 4.54667 97.2809 4.82 97.1609 5.1C96.7743 5.23333 96.5676 5.30667 96.5409 5.32C96.2076 5.41333 96.0076 5.65333 95.9409 6.04C95.9143 6.24 95.9009 6.39333 95.9009 6.5C95.8609 7.88667 95.7876 9.21333 95.6809 10.48C95.6543 10.8267 95.6476 11.2 95.6609 11.6C95.6743 11.92 95.6743 12.48 95.6609 13.28C95.6476 14.08 95.6409 14.6467 95.6409 14.98C95.6676 15.06 95.6809 15.1733 95.6809 15.32C95.6943 15.4667 95.7076 15.5667 95.7209 15.62C95.7743 15.98 95.8143 16.2 95.8409 16.28C96.0009 16.6267 96.2209 16.8 96.5009 16.8C98.0209 16.76 98.9543 16.7267 99.3009 16.7C99.5143 16.6867 99.9076 16.58 100.481 16.38C101.001 16.2067 101.354 15.8467 101.541 15.3C101.594 15.1267 101.654 14.88 101.721 14.56C101.761 14.36 101.888 14.26 102.101 14.26C102.541 14.26 102.761 14.26 102.761 14.26ZM94.1409 16.92C94.1543 16.96 94.1809 16.98 94.2209 16.98C94.2609 16.9667 94.2809 16.94 94.2809 16.9C94.2276 15.2067 94.1876 13.2133 94.1609 10.92C94.1476 10.56 94.1476 10.1 94.1609 9.54C94.1876 8.96667 94.2076 8.48 94.2209 8.08C94.2476 7.66667 94.2409 7.20667 94.2009 6.7C94.1743 6.18 94.1143 5.70667 94.0209 5.28C94.0209 5.26667 94.0076 5.26 93.9809 5.26C93.9543 5.26 93.9409 5.27333 93.9409 5.3C93.9943 6.03333 93.9876 7.07333 93.9209 8.42C93.8543 9.76667 93.8209 10.6867 93.8209 11.18C93.8343 11.7933 93.8676 12.8133 93.9209 14.24C93.9343 14.3467 93.9409 14.52 93.9409 14.76C93.9543 14.9867 93.9609 15.1733 93.9609 15.32C93.9743 15.4667 93.9876 15.64 94.0009 15.84C94.0143 16.04 94.0276 16.2267 94.0409 16.4C94.0676 16.5733 94.1009 16.7467 94.1409 16.92ZM117.183 8.02C117.557 9.1 117.71 9.99333 117.643 10.7C117.697 12.0333 117.39 13.5 116.723 15.1C116.603 15.38 116.403 15.6933 116.123 16.04C115.777 16.4667 115.223 16.96 114.463 17.52C114.33 17.6267 114.203 17.7 114.083 17.74C112.87 18.2067 111.937 18.4733 111.283 18.54C110.257 18.6333 109.29 18.4267 108.383 17.92C107.61 17.48 106.91 16.82 106.283 15.94C106.11 15.7 105.923 15.34 105.723 14.86C105.39 13.9933 105.123 12.7133 104.923 11.02C104.91 10.8067 104.943 10.4 105.023 9.8C105.25 8.04 106.003 6.58667 107.283 5.44C107.683 5.09333 108.023 4.86 108.303 4.74C108.423 4.7 108.523 4.65333 108.603 4.6C109.577 4.01333 110.69 3.78667 111.943 3.92C112.77 4.01333 113.517 4.22667 114.183 4.56C114.223 4.57333 114.263 4.59333 114.303 4.62C114.343 4.64667 114.383 4.67333 114.423 4.7C114.463 4.71333 114.497 4.73333 114.523 4.76C114.563 4.78667 114.603 4.81333 114.643 4.84C114.697 4.85333 114.737 4.86667 114.763 4.88C115.243 5.12 115.683 5.52 116.083 6.08C116.67 6.94667 117.037 7.59333 117.183 8.02ZM108.523 5.64C108.537 5.62667 108.53 5.61333 108.503 5.6C108.49 5.57333 108.477 5.56667 108.463 5.58C107.277 6.43333 106.663 8 106.623 10.28C106.583 12.4933 107.03 14.4667 107.963 16.2C107.99 16.24 108.023 16.2533 108.063 16.24C108.103 16.2133 108.117 16.1867 108.103 16.16C107.41 14.1067 107.043 12.26 107.003 10.62C106.963 8.3 107.47 6.64 108.523 5.64ZM113.063 16.08C113.197 15.8667 113.31 15.5533 113.403 15.14C113.643 13.9133 113.797 12.8067 113.863 11.82C113.943 10.4733 113.977 9.62 113.963 9.26C113.95 8.79333 113.843 8.05333 113.643 7.04C113.63 6.92 113.51 6.60667 113.283 6.1C113.163 5.83333 112.963 5.62667 112.683 5.48C112.63 5.45333 112.557 5.42 112.463 5.38C112.383 5.32667 112.323 5.28667 112.283 5.26C111.697 4.95333 111.083 4.94 110.443 5.22C109.83 5.47333 109.443 5.89333 109.283 6.48C108.95 7.68 108.77 8.59333 108.743 9.22C108.663 11.0733 108.643 12.34 108.683 13.02C108.763 14.1267 108.897 14.9733 109.083 15.56C109.23 15.9867 109.477 16.4 109.823 16.8C110.037 17.04 110.257 17.1733 110.483 17.2C111.19 17.2533 111.71 17.2133 112.043 17.08C112.377 16.9467 112.717 16.6133 113.063 16.08ZM115.943 11.18C115.97 9.86 115.85 8.84667 115.583 8.14C115.503 7.92667 115.403 7.7 115.283 7.46C115.163 7.22 115.063 7.04 114.983 6.92C114.917 6.78667 114.783 6.56667 114.583 6.26C114.397 5.95333 114.283 5.76667 114.243 5.7C114.23 5.67333 114.217 5.66667 114.203 5.68C114.19 5.69333 114.183 5.70667 114.183 5.72C114.21 5.77333 114.377 6.10667 114.683 6.72C115.003 7.32 115.217 7.78 115.323 8.1C115.55 8.76667 115.637 9.72 115.583 10.96C115.543 12.0933 115.43 13.0667 115.243 13.88C115.163 14.24 115.037 14.5933 114.863 14.94C114.69 15.2733 114.523 15.5467 114.363 15.76C114.217 15.9733 113.99 16.2667 113.683 16.64C113.657 16.6933 113.663 16.74 113.703 16.78C113.743 16.82 113.783 16.82 113.823 16.78C114.717 15.9533 115.277 15.1667 115.503 14.42C115.77 13.5533 115.917 12.4733 115.943 11.18ZM132.915 16.96C132.968 17.16 132.995 17.2667 132.995 17.28C133.008 17.5867 132.968 17.7867 132.875 17.88C132.795 17.96 132.601 18 132.295 18C132.228 18 132.148 18 132.055 18C131.961 18.0133 131.875 18.02 131.795 18.02C131.715 18.02 131.635 18.02 131.555 18.02C131.475 18.02 131.388 18.02 131.295 18.02C131.215 18.02 131.141 18.02 131.075 18.02C129.715 18.0333 128.481 18.0333 127.375 18.02C127.081 18.02 126.855 18.0067 126.695 17.98C126.601 17.9533 126.535 17.88 126.495 17.76C126.375 17.44 126.461 17.24 126.755 17.16C127.168 17.0267 127.415 16.94 127.495 16.9C127.895 16.7267 128.061 16.42 127.995 15.98C127.995 15.98 127.995 15.9667 127.995 15.94C127.995 15.9133 127.988 15.8933 127.975 15.88C127.615 14.7333 127.388 14.02 127.295 13.74C127.228 13.5667 127.081 13.4733 126.855 13.46C125.868 13.42 125.228 13.4 124.935 13.4C124.655 13.3733 124.321 13.3733 123.935 13.4C123.548 13.4133 123.201 13.4733 122.895 13.58C122.841 13.6467 122.795 13.72 122.755 13.8C122.715 13.8667 122.675 13.9333 122.635 14C122.608 14.0667 122.575 14.1533 122.535 14.26C122.508 14.3533 122.481 14.4267 122.455 14.48C122.441 14.5333 122.415 14.62 122.375 14.74C122.348 14.8467 122.328 14.9267 122.315 14.98C122.221 15.2867 122.148 15.6133 122.095 15.96C122.068 16.1067 122.068 16.2933 122.095 16.52C122.135 16.8267 122.301 17 122.595 17.04C122.701 17.0533 122.841 17.0667 123.015 17.08C123.201 17.0933 123.321 17.1 123.375 17.1C123.455 17.1133 123.521 17.1533 123.575 17.22C123.628 17.2867 123.648 17.3533 123.635 17.42C123.621 17.4467 123.575 17.6133 123.495 17.92C123.401 17.9467 123.348 17.96 123.335 17.96C121.801 17.9733 120.648 17.98 119.875 17.98C119.635 17.9933 119.501 17.8933 119.475 17.68C119.421 17.36 119.481 17.16 119.655 17.08C119.735 17.0933 119.808 17.0933 119.875 17.08C119.955 17.0533 120.021 17.02 120.075 16.98C120.141 16.94 120.201 16.9 120.255 16.86C120.308 16.8067 120.361 16.74 120.415 16.66C120.468 16.58 120.508 16.5133 120.535 16.46C120.575 16.4067 120.615 16.3267 120.655 16.22C120.708 16.1133 120.748 16.0333 120.775 15.98C120.801 15.9267 120.835 15.8467 120.875 15.74C120.928 15.62 120.961 15.54 120.975 15.5C121.148 15.0733 121.375 14.4667 121.655 13.68C121.935 12.8933 122.121 12.38 122.215 12.14C123.081 9.83333 123.735 7.96667 124.175 6.54C124.188 6.48667 124.208 6.42 124.235 6.34C124.261 6.24667 124.281 6.16667 124.295 6.1C124.321 6.02 124.341 5.94667 124.355 5.88C124.435 5.56 124.348 5.29333 124.095 5.08C124.068 5.05333 124.001 5.00667 123.895 4.94C123.788 4.86 123.708 4.79333 123.655 4.74C123.561 4.64667 123.541 4.50667 123.595 4.32C123.621 4.21333 123.708 4.15333 123.855 4.14C124.988 4.00667 126.101 4.01333 127.195 4.16C127.248 4.17333 127.288 4.2 127.315 4.24C127.355 4.28 127.375 4.31333 127.375 4.34C127.388 4.36667 127.408 4.42 127.435 4.5C127.461 4.56667 127.475 4.6 127.475 4.6C128.368 6.90667 128.901 8.30667 129.075 8.8C129.195 9.12 129.321 9.49333 129.455 9.92C129.588 10.3333 129.721 10.7533 129.855 11.18C130.001 11.6067 130.128 11.98 130.235 12.3C130.395 12.7533 130.628 13.3933 130.935 14.22C131.241 15.0333 131.441 15.5467 131.535 15.76C131.735 16.3067 132.088 16.66 132.595 16.82C132.608 16.82 132.715 16.8667 132.915 16.96ZM126.535 12.1C126.561 11.94 126.575 11.8533 126.575 11.84C126.428 11.4 126.215 10.6733 125.935 9.66C125.668 8.63333 125.441 7.84667 125.255 7.3C125.215 7.31333 125.168 7.33333 125.115 7.36C125.075 7.37333 125.041 7.39333 125.015 7.42C124.988 7.43333 124.968 7.44667 124.955 7.46C124.328 9.08667 123.855 10.5 123.535 11.7C123.521 11.7533 123.521 11.7933 123.535 11.82C123.588 11.9133 123.628 11.9667 123.655 11.98C124.561 12.18 125.521 12.22 126.535 12.1ZM130.015 16.44C130.028 16.48 130.055 16.4867 130.095 16.46C130.121 16.4467 130.128 16.4267 130.115 16.4C129.501 14.3867 128.835 12.5533 128.115 10.9C127.941 10.5 127.635 9.65333 127.195 8.36C126.755 7.06667 126.355 6.09333 125.995 5.44C125.981 5.42667 125.961 5.42667 125.935 5.44C125.921 5.44 125.921 5.44667 125.935 5.46C126.081 5.87333 126.348 6.69333 126.735 7.92C127.135 9.13333 127.475 10.0533 127.755 10.68C128.141 11.56 128.895 13.48 130.015 16.44ZM148.507 8.84C148.533 9 148.58 9.23333 148.647 9.54C148.727 9.83333 148.787 10.1067 148.827 10.36C148.88 10.6 148.907 10.8333 148.907 11.06C148.933 12.3 148.68 13.4467 148.147 14.5C147.24 16.3267 145.633 17.4733 143.327 17.94C142.993 17.9667 142.473 18.0133 141.767 18.08C141.06 18.1467 140.54 18.1867 140.207 18.2C139.873 18.2133 139.347 18.2133 138.627 18.2C138.32 18.1733 137.993 18.1533 137.647 18.14C137.3 18.1267 136.913 18.12 136.487 18.12C136.06 18.12 135.733 18.1133 135.507 18.1C135.32 18.1 135.173 18.0733 135.067 18.02C134.96 17.98 134.893 17.9 134.867 17.78C134.773 17.4067 134.887 17.1733 135.207 17.08C135.473 17 135.773 16.86 136.107 16.66C136.227 16.5933 136.307 16.4733 136.347 16.3C136.36 16.1667 136.373 15.9067 136.387 15.52C136.387 15.4933 136.413 13.0667 136.467 8.24C136.467 7.54667 136.473 7.02667 136.487 6.68C136.5 6.13333 136.273 5.73333 135.807 5.48C135.633 5.38667 135.427 5.29333 135.187 5.2C134.827 5.05333 134.707 4.79333 134.827 4.42C134.867 4.28667 134.94 4.21333 135.047 4.2C135.273 4.16 135.533 4.14 135.827 4.14C137.187 4.12667 139.053 4.10667 141.427 4.08C141.933 4.08 142.6 4.14 143.427 4.26C144.173 4.36667 144.84 4.6 145.427 4.96C145.507 5.01333 145.667 5.12 145.907 5.28C146.147 5.42667 146.333 5.54 146.467 5.62C146.773 5.80667 147.02 6.03333 147.207 6.3C147.473 6.68667 147.66 6.96667 147.767 7.14C147.873 7.3 148.007 7.55333 148.167 7.9C148.34 8.23333 148.453 8.54667 148.507 8.84ZM138.067 16.86C138.173 14.8733 138.18 12.9267 138.087 11.02C138.06 10.3267 138.06 9.7 138.087 9.14C138.113 8.58 138.113 7.94667 138.087 7.24C138.073 6.53333 138.013 5.91333 137.907 5.38C137.907 5.36667 137.893 5.36667 137.867 5.38C137.853 5.38 137.847 5.38667 137.847 5.4C137.713 9.90667 137.747 13.7267 137.947 16.86C137.96 16.9 137.98 16.92 138.007 16.92C138.047 16.92 138.067 16.9 138.067 16.86ZM144.927 12.58C144.927 12.5 144.947 11.9133 144.987 10.82C144.907 9.40667 144.867 8.64667 144.867 8.54C144.787 7.67333 144.453 6.9 143.867 6.22C143.387 5.68667 142.853 5.36 142.267 5.24C141.6 5.09333 140.86 5.09333 140.047 5.24C139.953 5.26667 139.88 5.34 139.827 5.46C139.8 5.55333 139.78 5.7 139.767 5.9C139.74 7.24667 139.72 8.26 139.707 8.94C139.707 9.20667 139.707 9.63333 139.707 10.22C139.707 10.8067 139.7 11.3267 139.687 11.78C139.687 12.2333 139.667 12.6667 139.627 13.08C139.627 13.2133 139.64 13.88 139.667 15.08C139.68 15.1867 139.693 15.3533 139.707 15.58C139.72 15.7933 139.727 15.96 139.727 16.08C139.727 16.4 139.767 16.6 139.847 16.68C139.927 16.7467 140.12 16.7933 140.427 16.82C141.253 16.8733 142.167 16.7267 143.167 16.38C143.86 16.1533 144.3 15.6867 144.487 14.98C144.78 13.94 144.927 13.14 144.927 12.58ZM145.347 16.06C146.467 14.9533 146.96 13.1333 146.827 10.6C146.827 10.5467 146.82 10.4333 146.807 10.26C146.793 10.0867 146.787 9.96667 146.787 9.9C146.787 9.82 146.78 9.7 146.767 9.54C146.753 9.38 146.74 9.26 146.727 9.18C146.713 9.08667 146.7 8.96667 146.687 8.82C146.673 8.67333 146.653 8.55333 146.627 8.46C146.613 8.35333 146.587 8.24 146.547 8.12C146.52 8 146.487 7.88 146.447 7.76C146.38 7.56 146.287 7.36 146.167 7.16C146.047 6.96 145.933 6.79333 145.827 6.66C145.733 6.52667 145.593 6.35333 145.407 6.14C145.22 5.92667 145.087 5.76 145.007 5.64C144.993 5.62667 144.973 5.62667 144.947 5.64C144.933 5.65333 144.933 5.66667 144.947 5.68C145.04 5.84 145.193 6.06 145.407 6.34C145.62 6.60667 145.793 6.86 145.927 7.1C146.073 7.32667 146.18 7.56667 146.247 7.82C146.393 8.32667 146.487 9.25333 146.527 10.6C146.593 12.88 146.153 14.6667 145.207 15.96C145.18 16 145.187 16.04 145.227 16.08C145.28 16.1067 145.32 16.1 145.347 16.06ZM156.745 17.04C156.878 17.0667 156.971 17.12 157.025 17.2C157.078 17.2667 157.105 17.3733 157.105 17.52C157.105 17.5467 157.098 17.5867 157.085 17.64C157.071 17.68 157.065 17.7133 157.065 17.74C157.065 17.8467 156.998 17.92 156.865 17.96C156.745 17.9867 156.591 18.0067 156.405 18.02C155.551 18.02 153.725 18.0333 150.925 18.06C150.778 17.9667 150.718 17.7667 150.745 17.46C150.758 17.2733 150.831 17.1533 150.965 17.1C151.045 17.0733 151.138 17.04 151.245 17C151.365 16.9467 151.478 16.9 151.585 16.86C151.705 16.8067 151.805 16.76 151.885 16.72C152.071 16.6267 152.171 16.48 152.185 16.28C152.225 15.6267 152.245 15.2133 152.245 15.04C152.191 13.88 152.198 12.54 152.265 11.02C152.291 10.5267 152.298 9.33333 152.285 7.44C152.285 7.17333 152.265 6.8 152.225 6.32C152.185 5.86667 151.931 5.52 151.465 5.28C151.411 5.26667 151.331 5.24667 151.225 5.22C151.131 5.19333 151.065 5.17333 151.025 5.16C150.891 5.10667 150.791 5.01333 150.725 4.88C150.671 4.73333 150.685 4.58667 150.765 4.44C150.791 4.36 150.838 4.31333 150.905 4.3C150.971 4.27333 151.085 4.26 151.245 4.26C151.738 4.26 152.185 4.26 152.585 4.26C154.305 4.24667 155.465 4.24 156.065 4.24C156.545 4.24 156.865 4.28 157.025 4.36C157.131 4.62667 157.125 4.9 157.005 5.18C156.618 5.31333 156.411 5.38667 156.385 5.4C156.051 5.49333 155.851 5.73333 155.785 6.12C155.758 6.32 155.745 6.47333 155.745 6.58C155.705 7.94 155.638 9.24 155.545 10.48C155.518 10.72 155.505 10.9667 155.505 11.22C155.505 11.4733 155.505 11.7667 155.505 12.1C155.505 12.4333 155.505 12.68 155.505 12.84C155.491 14.2533 155.485 15 155.485 15.08C155.498 15.4933 155.531 15.8667 155.585 16.2C155.678 16.6667 155.951 16.9333 156.405 17C156.431 17.0133 156.465 17.02 156.505 17.02C156.545 17.02 156.585 17.0267 156.625 17.04C156.665 17.04 156.705 17.04 156.745 17.04ZM154.165 13.96C154.178 13.28 154.165 12.34 154.125 11.14C154.111 10.8333 154.098 10.4533 154.085 10C154.085 9.54667 154.078 9.14667 154.065 8.8C154.065 8.45333 154.058 8.08 154.045 7.68C154.031 7.28 154.011 6.88667 153.985 6.5C153.958 6.1 153.931 5.72 153.905 5.36C153.891 5.33333 153.871 5.32 153.845 5.32C153.818 5.32 153.805 5.33333 153.805 5.36C153.751 5.93333 153.718 6.53333 153.705 7.16C153.705 7.78667 153.718 8.55333 153.745 9.46C153.785 10.3533 153.805 10.96 153.805 11.28C153.805 11.3867 153.805 11.8067 153.805 12.54C153.818 13.2733 153.831 13.8333 153.845 14.22C153.845 14.4067 153.845 14.6133 153.845 14.84C153.845 15.0533 153.845 15.2533 153.845 15.44C153.845 15.6267 153.851 15.8333 153.865 16.06C153.878 16.2733 153.905 16.4667 153.945 16.64C153.945 16.68 153.958 16.7 153.985 16.7C154.025 16.6867 154.045 16.6667 154.045 16.64C154.031 16.2933 154.045 15.8133 154.085 15.2C154.125 14.5733 154.151 14.16 154.165 13.96ZM171.74 4.36C171.74 4.49333 171.74 4.59333 171.74 4.66C171.74 4.83333 171.666 4.94667 171.52 5C171.053 5.16 170.806 5.24667 170.78 5.26C170.406 5.43333 170.193 5.72 170.14 6.12C170.113 6.24 170.1 6.42667 170.1 6.68C170.1 6.84 170.1 7.14 170.1 7.58C170.1 8.02 170.1 8.35333 170.1 8.58C170.086 9.1 170.066 10.04 170.04 11.4C170.026 12.7467 170.013 13.7867 170 14.52C169.986 14.9467 169.993 15.3933 170.02 15.86C170.033 16.02 170.053 16.26 170.08 16.58C170.106 16.9 170.12 17.1467 170.12 17.32C170.133 17.6933 170.1 17.92 170.02 18C169.94 18.0933 169.7 18.1333 169.3 18.12C169.193 18.12 169.006 18.1133 168.74 18.1C168.566 18.0867 168.433 18.0067 168.34 17.86C167.94 17.2067 167.386 16.4667 166.68 15.64C165.893 14.72 165.146 13.7333 164.44 12.68C163.426 11.16 162.413 9.81333 161.4 8.64C161.32 8.54667 161.226 8.40667 161.12 8.22C161.026 8.03333 160.953 7.90667 160.9 7.84C160.9 7.82667 160.8 7.80667 160.6 7.78C160.533 9.67333 160.493 10.96 160.48 11.64C160.466 12.3067 160.48 13.5733 160.52 15.44C160.533 15.6933 160.54 15.84 160.54 15.88C160.593 16.4133 160.873 16.72 161.38 16.8C161.446 16.8 161.52 16.8067 161.6 16.82C161.68 16.82 161.76 16.8267 161.84 16.84C161.933 16.8533 162.006 16.86 162.06 16.86C162.113 16.8733 162.166 16.9133 162.22 16.98C162.286 17.0467 162.32 17.1133 162.32 17.18C162.333 17.34 162.34 17.4867 162.34 17.62C162.326 17.7 162.293 17.7733 162.24 17.84C162.2 17.8933 162.14 17.92 162.06 17.92C161.94 17.9467 161.406 17.9533 160.46 17.94C159.513 17.9267 158.78 17.9133 158.26 17.9C158.193 17.9 158.08 17.88 157.92 17.84C157.84 17.8267 157.8 17.7733 157.8 17.68V17.16C157.8 17.0133 157.873 16.9333 158.02 16.92C158.513 16.8933 158.82 16.8533 158.94 16.8C159.246 16.6533 159.426 16.3 159.48 15.74C159.506 15.5267 159.513 15.2933 159.5 15.04C159.38 12.8667 159.38 10.6933 159.5 8.52C159.513 8.29333 159.506 7.66 159.48 6.62C159.48 6.51333 159.453 6.28667 159.4 5.94C159.36 5.58 159.153 5.35333 158.78 5.26C158.5 5.18 158.28 5.13333 158.12 5.12C157.933 5.12 157.793 5.09333 157.7 5.04C157.62 4.97333 157.58 4.88667 157.58 4.78C157.58 4.67333 157.58 4.54 157.58 4.38C157.593 4.34 157.613 4.29333 157.64 4.24C157.666 4.18667 157.7 4.14667 157.74 4.12C157.78 4.09333 157.82 4.07333 157.86 4.06C158.073 4.04667 158.186 4.04 158.2 4.04C158.72 4.04 159.926 4.04 161.82 4.04C161.993 4.04 162.14 4.10667 162.26 4.24C162.313 4.30667 162.36 4.37333 162.4 4.44C162.706 4.82667 162.906 5.1 163 5.26C163.28 5.71333 163.586 6.17333 163.92 6.64C164.253 7.10667 164.653 7.66 165.12 8.3C165.6 8.94 165.933 9.38667 166.12 9.64C166.306 9.89333 166.573 10.2667 166.92 10.76C167.266 11.2533 167.513 11.6067 167.66 11.82C167.913 12.1667 168.186 12.5267 168.48 12.9C168.48 12.9 168.58 12.9533 168.78 13.06C168.846 12.8467 168.88 12.7333 168.88 12.72C168.92 11.6 168.926 10.84 168.9 10.44C168.873 9.92 168.893 9.37333 168.96 8.8C168.986 8.58667 168.993 8.39333 168.98 8.22C168.94 7.67333 168.88 7.01333 168.8 6.24C168.8 6.17333 168.793 6.1 168.78 6.02C168.686 5.56667 168.433 5.27333 168.02 5.14C167.993 5.12667 167.753 5.06 167.3 4.94C167.206 4.82 167.166 4.66667 167.18 4.48C167.22 4.2 167.353 4.05333 167.58 4.04C168.1 4.04 168.586 4.04 169.04 4.04C169.826 4.05333 170.533 4.07333 171.16 4.1C171.24 4.1 171.373 4.11333 171.56 4.14C171.666 4.16667 171.726 4.24 171.74 4.36ZM168.04 14.96C168.066 14.9867 168.093 14.9933 168.12 14.98C168.146 14.9533 168.146 14.9267 168.12 14.9C167.946 14.6467 167.02 13.4067 165.34 11.18C163.673 8.95333 162.393 7.26667 161.5 6.12C161.486 6.10667 161.473 6.10667 161.46 6.12C161.446 6.13333 161.446 6.14667 161.46 6.16C162.46 7.76 163.533 9.34 164.68 10.9C164.786 11.02 164.933 11.2133 165.12 11.48C165.32 11.7467 165.473 11.96 165.58 12.12C165.7 12.2667 165.846 12.46 166.02 12.7C166.206 12.94 166.366 13.1467 166.5 13.32C166.646 13.48 166.806 13.6667 166.98 13.88C167.166 14.08 167.346 14.2733 167.52 14.46C167.693 14.6333 167.866 14.8 168.04 14.96ZM186.157 11.9C185.983 11.9 185.863 11.9067 185.797 11.92C185.73 11.9333 185.643 11.96 185.537 12C185.43 12.0267 185.357 12.08 185.317 12.16C185.277 12.2267 185.257 12.32 185.257 12.44V18.16C185.43 18.32 185.683 18.3733 186.017 18.32C186.057 18.3067 186.097 18.3133 186.137 18.34C186.177 18.38 186.197 18.4267 186.197 18.48V18.66C186.197 18.78 186.143 18.84 186.037 18.84L184.957 18.82C184.943 18.82 184.783 18.82 184.477 18.82H183.797C183.703 18.82 183.617 18.82 183.537 18.82H183.517C183.343 18.8067 183.21 18.76 183.117 18.68C183.037 18.6133 183.003 18.4933 183.017 18.32C183.03 18.0933 183.05 17.8133 183.077 17.48C182.957 17.5467 182.877 17.5867 182.837 17.6C181.13 18.4 179.497 18.5933 177.937 18.18C176.71 17.86 175.73 17.1667 174.997 16.1C174.01 14.6333 173.523 12.98 173.537 11.14C173.537 10.14 173.597 9.39333 173.717 8.9C173.997 7.74 174.537 6.73333 175.337 5.88C175.443 5.78667 175.603 5.63333 175.817 5.42C177.11 4.18 178.763 3.65333 180.777 3.84C180.95 3.86667 181.177 3.91333 181.457 3.98C181.737 4.03333 182.057 4.12 182.417 4.24C182.79 4.36 183.103 4.48667 183.357 4.62C183.37 4.63333 183.377 4.65333 183.377 4.68C183.39 4.69333 183.397 4.70667 183.397 4.72C183.343 4.46667 183.297 4.24 183.257 4.04C183.19 3.73333 183.197 3.53333 183.277 3.44C183.37 3.34667 183.53 3.29333 183.757 3.28L184.077 3.24C184.21 3.21333 184.303 3.24667 184.357 3.34C184.41 3.43333 184.45 3.57333 184.477 3.76C184.757 5.26667 185.063 6.24667 185.397 6.7C185.45 6.79333 185.45 6.88667 185.397 6.98C185.343 7.07333 185.27 7.16 185.177 7.24L185.057 7.34C184.79 7.46 184.57 7.41333 184.397 7.2C184.117 6.89333 183.91 6.55333 183.777 6.18H183.757C183.37 5.60667 182.657 5.24 181.617 5.08C180.59 4.92 179.717 5.06 178.997 5.5C178.81 5.62 178.677 5.72667 178.597 5.82C177.903 6.54 177.49 7.27333 177.357 8.02C177.13 9.36667 177.05 10.5933 177.117 11.7C177.197 12.98 177.277 13.8333 177.357 14.26C177.503 14.94 177.777 15.6333 178.177 16.34C178.417 16.7667 178.77 17.02 179.237 17.1C179.53 17.14 179.783 17.1733 179.997 17.2C180.557 17.28 181.13 17.14 181.717 16.78C182.343 16.3933 182.697 15.86 182.777 15.18C182.79 15.06 182.823 14.8133 182.877 14.44C182.943 14.0533 182.977 13.8067 182.977 13.7C182.99 13.58 182.99 13.3267 182.977 12.94C182.937 12.54 182.717 12.2667 182.317 12.12C182.29 12.12 182.257 12.1133 182.217 12.1C182.177 12.0867 182.137 12.08 182.097 12.08C182.07 12.0667 182.03 12.06 181.977 12.06C181.937 12.0467 181.903 12.04 181.877 12.04C181.783 12.0133 181.677 11.98 181.557 11.94C181.357 11.8733 181.27 11.7267 181.297 11.5C181.323 11.3267 181.343 11.2333 181.357 11.22C181.383 11.1933 181.483 11.1733 181.657 11.16C182.177 11.12 182.697 11.08 183.217 11.04C184.51 10.9333 185.477 10.8733 186.117 10.86C186.21 10.86 186.277 10.8867 186.317 10.94C186.357 10.9933 186.377 11.0467 186.377 11.1C186.377 11.1533 186.383 11.2467 186.397 11.38C186.397 11.4067 186.397 11.44 186.397 11.48C186.397 11.52 186.397 11.5533 186.397 11.58C186.397 11.5933 186.39 11.62 186.377 11.66C186.377 11.7 186.377 11.7267 186.377 11.74C186.377 11.7533 186.37 11.7733 186.357 11.8C186.343 11.8267 186.323 11.8467 186.297 11.86C186.283 11.86 186.263 11.8667 186.237 11.88C186.21 11.8933 186.183 11.9 186.157 11.9ZM177.237 16.74C177.263 16.7667 177.29 16.7667 177.317 16.74C177.343 16.7133 177.35 16.6867 177.337 16.66C176.683 15.74 176.197 14.6933 175.877 13.52C175.557 12.3333 175.443 11.18 175.537 10.06C175.737 7.78 176.357 6.21333 177.397 5.36C177.41 5.33333 177.41 5.31333 177.397 5.3C177.383 5.27333 177.363 5.26667 177.337 5.28C176.217 5.89333 175.503 7.43333 175.197 9.9C175.063 11.02 175.157 12.1333 175.477 13.24C175.903 14.7867 176.49 15.9533 177.237 16.74Z" fill="#794EFF"/>
</svg>
